<svg width="24" height="24" viewBox="0 0 24 24" fill="none" xmlns="http://www.w3.org/2000/svg">
<circle cx="12" cy="12" r="12" fill="white" fill-opacity="0.9"/>
<path d="M12.0667 16.3626L12 16.4293L11.9267 16.3626C8.76004 13.4893 6.66671 11.5893 6.66671 9.66264C6.66671 8.3293 7.66671 7.3293 9.00004 7.3293C10.0267 7.3293 11.0267 7.99597 11.38 8.90264H12.62C12.9734 7.99597 13.9734 7.3293 15 7.3293C16.3334 7.3293 17.3334 8.3293 17.3334 9.66264C17.3334 11.5893 15.24 13.4893 12.0667 16.3626ZM15 5.99597C13.84 5.99597 12.7267 6.53597 12 7.38264C11.2734 6.53597 10.16 5.99597 9.00004 5.99597C6.94671 5.99597 5.33337 7.60264 5.33337 9.66264C5.33337 12.176 7.60004 14.236 11.0334 17.3493L12 18.2293L12.9667 17.3493C16.4 14.236 18.6667 12.176 18.6667 9.66264C18.6667 7.60264 17.0534 5.99597 15 5.99597Z" fill="#323232"/>
</svg>
