<svg width="36" height="36" viewBox="0 0 36 36" fill="none" xmlns="http://www.w3.org/2000/svg">
<circle cx="18" cy="18" r="18" fill="#ED5A25"/>
<path d="M11.7 17.0999H21.753L17.361 12.7079C17.01 12.3569 17.01 11.7809 17.361 11.4299C17.4443 11.3465 17.5432 11.2803 17.6521 11.2352C17.7609 11.19 17.8776 11.1667 17.9955 11.1667C18.1134 11.1667 18.2301 11.19 18.339 11.2352C18.4479 11.2803 18.5468 11.3465 18.63 11.4299L24.561 17.3609C24.6445 17.4442 24.7106 17.5431 24.7558 17.652C24.801 17.7609 24.8242 17.8776 24.8242 17.9954C24.8242 18.1133 24.801 18.23 24.7558 18.3389C24.7106 18.4478 24.6445 18.5467 24.561 18.6299L18.63 24.5609C18.5467 24.6443 18.4478 24.7104 18.3389 24.7555C18.23 24.8006 18.1134 24.8238 17.9955 24.8238C17.8777 24.8238 17.761 24.8006 17.6521 24.7555C17.5433 24.7104 17.4443 24.6443 17.361 24.5609C17.2777 24.4776 17.2116 24.3787 17.1665 24.2698C17.1214 24.161 17.0982 24.0443 17.0982 23.9264C17.0982 23.8086 17.1214 23.6919 17.1665 23.5831C17.2116 23.4742 17.2777 23.3753 17.361 23.2919L21.753 18.8999H11.7C11.205 18.8999 10.8 18.4949 10.8 17.9999C10.8 17.5049 11.205 17.0999 11.7 17.0999Z" fill="white"/>
</svg>
