<svg width="427" height="47" viewBox="0 0 427 47" fill="none" xmlns="http://www.w3.org/2000/svg">
<path d="M47.2238 23.5001C47.2238 26.5377 46.6255 29.5457 45.463 32.3521C44.3006 35.1585 42.5967 37.7085 40.4488 39.8565C38.3008 42.0044 35.7508 43.7083 32.9444 44.8707C30.1379 46.0332 27.13 46.6315 24.0924 46.6315C21.0547 46.6315 18.0468 46.0332 15.2403 44.8707C12.4339 43.7083 9.88393 42.0044 7.73597 39.8565C5.58802 37.7085 3.88417 35.1585 2.72171 32.3521C1.55925 29.5457 0.960937 26.5377 0.960938 23.5001L24.0924 23.5001H47.2238Z" fill="#323232"/>
<path d="M0.960779 23.4999C0.96078 20.4623 1.55909 17.4543 2.72156 14.6479C3.88402 11.8415 5.58787 9.29148 7.73582 7.14353C9.88377 4.99558 12.4338 3.29173 15.2402 2.12927C18.0466 0.966802 21.0545 0.36849 24.0922 0.36849C27.1299 0.36849 30.1378 0.966803 32.9442 2.12927C35.7507 3.29173 38.3006 4.99558 40.4486 7.14353C42.5966 9.29148 44.3004 11.8415 45.4629 14.6479C46.6253 17.4543 47.2236 20.4623 47.2236 23.4999L24.0922 23.4999L0.960779 23.4999Z" fill="white"/>
<path d="M84.7914 34H80.2576L69.9919 18.4881V34H65.4581V11.3636H69.9919L80.2576 26.9079V11.3636H84.7914V34ZM88.1059 24.9649C88.1059 23.1514 88.4622 21.543 89.1746 20.1396C89.9086 18.7363 90.891 17.6569 92.1215 16.9012C93.3737 16.1456 94.7662 15.7678 96.2991 15.7678C97.6376 15.7678 98.8034 16.0377 99.7966 16.5774C100.811 17.1171 101.621 17.7972 102.225 18.6176V16.0593H106.791V34H102.225V31.3769C101.642 32.2189 100.833 32.9205 99.7966 33.4819C98.7819 34.0216 97.6052 34.2915 96.2667 34.2915C94.7554 34.2915 93.3737 33.9028 92.1215 33.1256C90.891 32.3484 89.9086 31.2582 89.1746 29.8548C88.4622 28.43 88.1059 26.8 88.1059 24.9649ZM102.225 25.0296C102.225 23.9286 102.009 22.9894 101.578 22.2122C101.146 21.4134 100.563 20.8089 99.8289 20.3987C99.0949 19.9669 98.3069 19.751 97.4649 19.751C96.6229 19.751 95.8457 19.9561 95.1333 20.3663C94.4208 20.7765 93.8379 21.381 93.3845 22.1798C92.9527 22.9571 92.7368 23.8854 92.7368 24.9649C92.7368 26.0443 92.9527 26.9943 93.3845 27.8147C93.8379 28.6135 94.4208 29.2288 95.1333 29.6605C95.8673 30.0923 96.6445 30.3082 97.4649 30.3082C98.3069 30.3082 99.0949 30.1031 99.8289 29.6929C100.563 29.2611 101.146 28.6566 101.578 27.8794C102.009 27.0806 102.225 26.1307 102.225 25.0296ZM115.753 18.65C116.336 17.8296 117.135 17.1495 118.15 16.6098C119.186 16.0485 120.363 15.7678 121.68 15.7678C123.212 15.7678 124.594 16.1456 125.825 16.9012C127.077 17.6569 128.059 18.7363 128.772 20.1396C129.506 21.5214 129.873 23.1298 129.873 24.9649C129.873 26.8 129.506 28.43 128.772 29.8548C128.059 31.2582 127.077 32.3484 125.825 33.1256C124.594 33.9028 123.212 34.2915 121.68 34.2915C120.363 34.2915 119.197 34.0216 118.182 33.4819C117.189 32.9421 116.379 32.2621 115.753 31.4417V42.5494H111.22V16.0593H115.753V18.65ZM125.242 24.9649C125.242 23.8854 125.015 22.9571 124.562 22.1798C124.13 21.381 123.547 20.7765 122.813 20.3663C122.101 19.9561 121.323 19.751 120.481 19.751C119.661 19.751 118.884 19.9669 118.15 20.3987C117.437 20.8089 116.854 21.4134 116.401 22.2122C115.969 23.011 115.753 23.9502 115.753 25.0296C115.753 26.1091 115.969 27.0482 116.401 27.847C116.854 28.6458 117.437 29.2611 118.15 29.6929C118.884 30.1031 119.661 30.3082 120.481 30.3082C121.323 30.3082 122.101 30.0923 122.813 29.6605C123.547 29.2288 124.13 28.6135 124.562 27.8147C125.015 27.0159 125.242 26.0659 125.242 24.9649ZM148.55 11.396V15.0554H142.526V34H137.992V15.0554H131.969V11.396H148.55ZM154.157 13.9219C153.358 13.9219 152.689 13.6736 152.149 13.1771C151.631 12.6589 151.372 12.0221 151.372 11.2664C151.372 10.5108 151.631 9.88471 152.149 9.38816C152.689 8.87002 153.358 8.61094 154.157 8.61094C154.956 8.61094 155.614 8.87002 156.132 9.38816C156.672 9.88471 156.942 10.5108 156.942 11.2664C156.942 12.0221 156.672 12.6589 156.132 13.1771C155.614 13.6736 154.956 13.9219 154.157 13.9219ZM156.391 16.0593V34H151.858V16.0593H156.391ZM177.549 24.641C177.549 25.2887 177.505 25.8716 177.419 26.3898H164.303C164.411 27.6851 164.865 28.6998 165.664 29.4339C166.462 30.1679 167.445 30.5349 168.611 30.5349C170.294 30.5349 171.493 29.8117 172.205 28.3652H177.095C176.577 30.0923 175.584 31.5172 174.116 32.6399C172.648 33.7409 170.845 34.2915 168.708 34.2915C166.981 34.2915 165.426 33.9136 164.044 33.158C162.684 32.3808 161.616 31.2905 160.838 29.8872C160.083 28.4839 159.705 26.8647 159.705 25.0296C159.705 23.1729 160.083 21.543 160.838 20.1396C161.594 18.7363 162.652 17.6569 164.012 16.9012C165.372 16.1456 166.937 15.7678 168.708 15.7678C170.413 15.7678 171.935 16.1348 173.274 16.8689C174.634 17.6029 175.681 18.65 176.415 20.0101C177.171 21.3487 177.549 22.8923 177.549 24.641ZM172.853 23.3457C172.831 22.1798 172.41 21.2515 171.59 20.5606C170.769 19.8482 169.766 19.492 168.578 19.492C167.455 19.492 166.506 19.8374 165.728 20.5283C164.973 21.1975 164.509 22.1367 164.336 23.3457H172.853ZM190.8 15.8002C192.937 15.8002 194.664 16.4803 195.981 17.8404C197.298 19.1789 197.957 21.0572 197.957 23.4752V34H193.423V24.0905C193.423 22.6656 193.067 21.5753 192.354 20.8197C191.642 20.0425 190.67 19.6539 189.44 19.6539C188.187 19.6539 187.194 20.0425 186.46 20.8197C185.748 21.5753 185.392 22.6656 185.392 24.0905V34H180.858V16.0593H185.392V18.2938C185.996 17.5165 186.762 16.912 187.691 16.4803C188.641 16.0269 189.677 15.8002 190.8 15.8002Z" fill="white"/>
</svg>
