<svg width="32" height="32" viewBox="0 0 32 32" fill="none" xmlns="http://www.w3.org/2000/svg">
<rect width="32" height="32" rx="8" fill="#F0F0F0" style="mix-blend-mode:multiply"/>
<path d="M15.212 23C14.936 23 14.708 22.916 14.528 22.748C14.348 22.568 14.258 22.346 14.258 22.082V12.434L14.492 12.758L12.818 13.928C12.674 14.048 12.5 14.108 12.296 14.108C12.056 14.108 11.84 14.018 11.648 13.838C11.468 13.646 11.378 13.424 11.378 13.172C11.378 12.86 11.534 12.602 11.846 12.398L14.582 10.58C14.69 10.508 14.804 10.46 14.924 10.436C15.056 10.412 15.176 10.4 15.284 10.4C15.56 10.4 15.782 10.49 15.95 10.67C16.118 10.838 16.202 11.054 16.202 11.318V22.082C16.202 22.346 16.106 22.568 15.914 22.748C15.734 22.916 15.5 23 15.212 23Z" fill="black"/>
</svg>
