<svg width="32" height="32" viewBox="0 0 32 32" fill="none" xmlns="http://www.w3.org/2000/svg">
<rect width="32" height="32" rx="8" fill="#F0F0F0" style="mix-blend-mode:multiply"/>
<path d="M19.334 21.326C19.574 21.326 19.772 21.41 19.928 21.578C20.096 21.734 20.18 21.932 20.18 22.172C20.18 22.412 20.096 22.61 19.928 22.766C19.772 22.922 19.574 23 19.334 23H13.016C12.752 23 12.542 22.922 12.386 22.766C12.23 22.61 12.152 22.4 12.152 22.136C12.152 21.896 12.236 21.68 12.404 21.488L16.418 17.15C16.934 16.598 17.33 16.052 17.606 15.512C17.894 14.972 18.038 14.498 18.038 14.09C18.038 13.43 17.84 12.896 17.444 12.488C17.048 12.08 16.526 11.876 15.878 11.876C15.602 11.876 15.32 11.942 15.032 12.074C14.756 12.194 14.492 12.362 14.24 12.578C14 12.782 13.79 13.022 13.61 13.298C13.49 13.466 13.37 13.574 13.25 13.622C13.13 13.67 13.016 13.694 12.908 13.694C12.68 13.694 12.47 13.616 12.278 13.46C12.098 13.292 12.008 13.1 12.008 12.884C12.008 12.716 12.062 12.554 12.17 12.398C12.278 12.242 12.416 12.08 12.584 11.912C12.848 11.588 13.166 11.3 13.538 11.048C13.922 10.784 14.324 10.58 14.744 10.436C15.164 10.292 15.578 10.22 15.986 10.22C16.778 10.22 17.462 10.376 18.038 10.688C18.626 11 19.076 11.438 19.388 12.002C19.712 12.566 19.874 13.232 19.874 14C19.874 14.648 19.676 15.368 19.28 16.16C18.896 16.94 18.356 17.708 17.66 18.464L14.87 21.506L14.672 21.326H19.334Z" fill="black"/>
</svg>
