<svg width="240" height="24" viewBox="0 0 240 24" fill="none" xmlns="http://www.w3.org/2000/svg">
<rect width="44" height="20" rx="10" fill="#ED5A25"/>
<path d="M27.3334 6H16.6667M25.3334 10H16.6667M23.3334 14H16.6667" stroke="white" stroke-width="1.33333" stroke-linecap="round" stroke-linejoin="round"/>
<path d="M61.124 15.21C60.1207 15.21 59.269 14.9883 58.569 14.545C57.869 14.1017 57.3347 13.4857 56.966 12.697C56.602 11.9083 56.42 10.996 56.42 9.96C56.42 8.924 56.602 8.01167 56.966 7.223C57.3347 6.43433 57.869 5.81833 58.569 5.375C59.269 4.93167 60.1207 4.71 61.124 4.71C62.2907 4.71 63.2497 5.00633 64.001 5.599C64.757 6.19167 65.2773 6.98967 65.562 7.993L64.295 8.329C64.0897 7.57767 63.7233 6.985 63.196 6.551C62.6687 6.117 61.978 5.9 61.124 5.9C60.3727 5.9 59.7473 6.07033 59.248 6.411C58.7487 6.75167 58.373 7.22767 58.121 7.839C57.869 8.44567 57.7407 9.15267 57.736 9.96C57.7313 10.7627 57.855 11.4697 58.107 12.081C58.359 12.6877 58.737 13.1637 59.241 13.509C59.745 13.8497 60.3727 14.02 61.124 14.02C61.978 14.02 62.6687 13.803 63.196 13.369C63.7233 12.9303 64.0897 12.3377 64.295 11.591L65.562 11.927C65.2773 12.9257 64.757 13.7237 64.001 14.321C63.2497 14.9137 62.2907 15.21 61.124 15.21ZM69.2462 15.21C68.6815 15.21 68.2079 15.1073 67.8252 14.902C67.4472 14.692 67.1602 14.4167 66.9642 14.076C66.7729 13.7353 66.6772 13.362 66.6772 12.956C66.6772 12.5593 66.7519 12.2163 66.9012 11.927C67.0552 11.633 67.2699 11.3903 67.5452 11.199C67.8205 11.003 68.1495 10.849 68.5322 10.737C68.8915 10.639 69.2929 10.555 69.7362 10.485C70.1842 10.4103 70.6369 10.3427 71.0942 10.282C71.5515 10.2213 71.9785 10.163 72.3752 10.107L71.9272 10.366C71.9412 9.694 71.8059 9.197 71.5212 8.875C71.2412 8.553 70.7559 8.392 70.0652 8.392C69.6079 8.392 69.2065 8.497 68.8612 8.707C68.5205 8.91233 68.2802 9.24833 68.1402 9.715L66.9572 9.358C67.1392 8.69533 67.4915 8.175 68.0142 7.797C68.5369 7.419 69.2252 7.23 70.0792 7.23C70.7652 7.23 71.3532 7.35367 71.8432 7.601C72.3379 7.84367 72.6925 8.21233 72.9072 8.707C73.0145 8.94033 73.0822 9.19467 73.1102 9.47C73.1382 9.74067 73.1522 10.0253 73.1522 10.324V15H72.0462V13.187L72.3052 13.355C72.0205 13.9663 71.6215 14.4283 71.1082 14.741C70.5995 15.0537 69.9789 15.21 69.2462 15.21ZM69.4352 14.167C69.8832 14.167 70.2705 14.0877 70.5972 13.929C70.9285 13.7657 71.1945 13.5533 71.3952 13.292C71.5959 13.026 71.7265 12.7367 71.7872 12.424C71.8572 12.1907 71.8945 11.9317 71.8992 11.647C71.9085 11.3577 71.9132 11.136 71.9132 10.982L72.3472 11.171C71.9412 11.227 71.5422 11.2807 71.1502 11.332C70.7582 11.3833 70.3872 11.4393 70.0372 11.5C69.6872 11.556 69.3722 11.6237 69.0922 11.703C68.8869 11.7683 68.6932 11.8523 68.5112 11.955C68.3339 12.0577 68.1892 12.1907 68.0772 12.354C67.9699 12.5127 67.9162 12.711 67.9162 12.949C67.9162 13.1543 67.9675 13.3503 68.0702 13.537C68.1775 13.7237 68.3409 13.8753 68.5602 13.992C68.7842 14.1087 69.0759 14.167 69.4352 14.167ZM74.9722 15V7.44H76.0852V9.267L75.9032 9.029C75.9919 8.79567 76.1062 8.581 76.2462 8.385C76.3909 8.189 76.5519 8.028 76.7292 7.902C76.9252 7.74333 77.1469 7.622 77.3942 7.538C77.6415 7.454 77.8935 7.405 78.1502 7.391C78.4069 7.37233 78.6472 7.38867 78.8712 7.44V8.609C78.6099 8.539 78.3229 8.52033 78.0102 8.553C77.6975 8.58567 77.4082 8.7 77.1422 8.896C76.8995 9.06867 76.7105 9.27867 76.5752 9.526C76.4445 9.77333 76.3535 10.0417 76.3022 10.331C76.2509 10.6157 76.2252 10.9073 76.2252 11.206V15H74.9722ZM83.0261 15.21C82.3215 15.21 81.7171 15.035 81.2131 14.685C80.7091 14.3303 80.3195 13.852 80.0441 13.25C79.7735 12.648 79.6381 11.969 79.6381 11.213C79.6381 10.457 79.7735 9.778 80.0441 9.176C80.3195 8.574 80.7091 8.10033 81.2131 7.755C81.7171 7.405 82.3191 7.23 83.0191 7.23C83.7331 7.23 84.3328 7.40267 84.8181 7.748C85.3035 8.09333 85.6698 8.567 85.9171 9.169C86.1691 9.771 86.2951 10.4523 86.2951 11.213C86.2951 11.9643 86.1691 12.6433 85.9171 13.25C85.6698 13.852 85.3035 14.3303 84.8181 14.685C84.3328 15.035 83.7355 15.21 83.0261 15.21ZM83.1801 14.069C83.6888 14.069 84.1065 13.9477 84.4331 13.705C84.7598 13.4577 85.0001 13.1193 85.1541 12.69C85.3128 12.256 85.3921 11.7637 85.3921 11.213C85.3921 10.653 85.3128 10.1607 85.1541 9.736C85.0001 9.30667 84.7621 8.973 84.4401 8.735C84.1181 8.49233 83.7098 8.371 83.2151 8.371C82.7018 8.371 82.2771 8.497 81.9411 8.749C81.6098 9.001 81.3625 9.34167 81.1991 9.771C81.0405 10.2003 80.9611 10.681 80.9611 11.213C80.9611 11.7497 81.0428 12.235 81.2061 12.669C81.3695 13.0983 81.6145 13.439 81.9411 13.691C82.2725 13.943 82.6855 14.069 83.1801 14.069ZM85.3921 15V9.435H85.2521V4.92H86.5051V15H85.3921ZM93.7331 15L90.3591 4.92H91.6541L94.5871 13.677L97.5481 4.92H98.8431L95.4691 15H93.7331ZM102.282 15.21C101.531 15.21 100.882 15.0397 100.336 14.699C99.7947 14.3583 99.377 13.887 99.083 13.285C98.789 12.683 98.642 11.9923 98.642 11.213C98.642 10.4197 98.7914 9.72433 99.09 9.127C99.3887 8.52967 99.811 8.06533 100.357 7.734C100.903 7.398 101.545 7.23 102.282 7.23C103.038 7.23 103.689 7.40033 104.235 7.741C104.781 8.077 105.199 8.546 105.488 9.148C105.782 9.74533 105.929 10.4337 105.929 11.213C105.929 12.0017 105.782 12.697 105.488 13.299C105.194 13.8963 104.774 14.3653 104.228 14.706C103.682 15.042 103.033 15.21 102.282 15.21ZM102.282 14.027C103.066 14.027 103.649 13.7657 104.032 13.243C104.415 12.7203 104.606 12.0437 104.606 11.213C104.606 10.359 104.412 9.68 104.025 9.176C103.638 8.66733 103.057 8.413 102.282 8.413C101.755 8.413 101.321 8.532 100.98 8.77C100.639 9.008 100.385 9.337 100.217 9.757C100.049 10.177 99.965 10.6623 99.965 11.213C99.965 12.0623 100.161 12.7437 100.553 13.257C100.945 13.7703 101.521 14.027 102.282 14.027ZM110.34 15.196C109.855 15.196 109.437 15.119 109.087 14.965C108.742 14.811 108.455 14.6057 108.226 14.349C107.998 14.0923 107.818 13.8077 107.687 13.495C107.557 13.1823 107.463 12.8627 107.407 12.536C107.356 12.2093 107.33 11.9037 107.33 11.619V7.44H108.59V11.227C108.59 11.5817 108.623 11.9247 108.688 12.256C108.754 12.5873 108.863 12.886 109.017 13.152C109.176 13.418 109.386 13.628 109.647 13.782C109.913 13.936 110.245 14.013 110.641 14.013C110.954 14.013 111.239 13.9593 111.495 13.852C111.752 13.7447 111.971 13.586 112.153 13.376C112.335 13.1613 112.475 12.8907 112.573 12.564C112.671 12.2373 112.72 11.857 112.72 11.423L113.539 11.675C113.539 12.403 113.406 13.0307 113.14 13.558C112.879 14.0853 112.508 14.4913 112.027 14.776C111.551 15.056 110.989 15.196 110.34 15.196ZM112.86 15V12.977H112.72V7.44H113.973V15H112.86ZM119.118 15.21C118.353 15.21 117.702 15.0397 117.165 14.699C116.633 14.3537 116.227 13.88 115.947 13.278C115.667 12.676 115.522 11.99 115.513 11.22C115.522 10.4313 115.669 9.73833 115.954 9.141C116.243 8.539 116.656 8.07 117.193 7.734C117.73 7.398 118.376 7.23 119.132 7.23C119.93 7.23 120.616 7.426 121.19 7.818C121.769 8.21 122.156 8.74667 122.352 9.428L121.12 9.799C120.961 9.36033 120.702 9.01967 120.343 8.777C119.988 8.53433 119.58 8.413 119.118 8.413C118.6 8.413 118.173 8.53433 117.837 8.777C117.501 9.015 117.251 9.34633 117.088 9.771C116.925 10.191 116.841 10.674 116.836 11.22C116.845 12.06 117.039 12.739 117.417 13.257C117.8 13.7703 118.367 14.027 119.118 14.027C119.613 14.027 120.023 13.915 120.35 13.691C120.677 13.4623 120.924 13.1333 121.092 12.704L122.352 13.033C122.091 13.7377 121.682 14.2767 121.127 14.65C120.572 15.0233 119.902 15.21 119.118 15.21ZM129.164 15V11.213C129.164 10.8537 129.131 10.5083 129.066 10.177C129.005 9.84567 128.895 9.54933 128.737 9.288C128.583 9.022 128.373 8.812 128.107 8.658C127.845 8.504 127.514 8.427 127.113 8.427C126.8 8.427 126.515 8.48067 126.259 8.588C126.007 8.69067 125.79 8.84933 125.608 9.064C125.426 9.27867 125.283 9.54933 125.181 9.876C125.083 10.198 125.034 10.5783 125.034 11.017L124.215 10.765C124.215 10.0323 124.345 9.40467 124.607 8.882C124.873 8.35467 125.244 7.951 125.72 7.671C126.2 7.38633 126.765 7.244 127.414 7.244C127.904 7.244 128.321 7.321 128.667 7.475C129.012 7.629 129.299 7.83433 129.528 8.091C129.756 8.343 129.936 8.62767 130.067 8.945C130.197 9.25767 130.288 9.57733 130.34 9.904C130.396 10.226 130.424 10.5317 130.424 10.821V15H129.164ZM123.774 15V4.92H124.894V10.485H125.034V15H123.774ZM135.52 15.21C134.778 15.21 134.129 15.0467 133.574 14.72C133.023 14.3887 132.594 13.929 132.286 13.341C131.978 12.7483 131.824 12.0577 131.824 11.269C131.824 10.443 131.975 9.729 132.279 9.127C132.582 8.52033 133.004 8.05367 133.546 7.727C134.092 7.39567 134.731 7.23 135.464 7.23C136.224 7.23 136.871 7.405 137.403 7.755C137.939 8.105 138.341 8.60433 138.607 9.253C138.877 9.90167 138.994 10.674 138.957 11.57H137.697V11.122C137.683 10.1933 137.494 9.50033 137.13 9.043C136.766 8.581 136.224 8.35 135.506 8.35C134.736 8.35 134.15 8.59733 133.749 9.092C133.347 9.58667 133.147 10.296 133.147 11.22C133.147 12.1113 133.347 12.802 133.749 13.292C134.15 13.782 134.722 14.027 135.464 14.027C135.963 14.027 136.397 13.9127 136.766 13.684C137.134 13.4553 137.424 13.1263 137.634 12.697L138.831 13.11C138.537 13.7773 138.093 14.2953 137.501 14.664C136.913 15.028 136.252 15.21 135.52 15.21ZM132.727 11.57V10.569H138.313V11.57H132.727ZM140.515 15V7.44H141.628V9.267L141.446 9.029C141.535 8.79567 141.649 8.581 141.789 8.385C141.934 8.189 142.095 8.028 142.272 7.902C142.468 7.74333 142.69 7.622 142.937 7.538C143.184 7.454 143.436 7.405 143.693 7.391C143.95 7.37233 144.19 7.38867 144.414 7.44V8.609C144.153 8.539 143.866 8.52033 143.553 8.553C143.24 8.58567 142.951 8.7 142.685 8.896C142.442 9.06867 142.253 9.27867 142.118 9.526C141.987 9.77333 141.896 10.0417 141.845 10.331C141.794 10.6157 141.768 10.9073 141.768 11.206V15H140.515ZM150.998 13.901L150.214 13.124L152.79 10.59L150.214 8.056L150.998 7.279L154.309 10.59L150.998 13.901Z" fill="#AFAFAF"/>
<path d="M162.855 15V4.92H163.989L167.797 12.949L171.584 4.92H172.732V14.993H171.549V7.657L168.126 15H167.461L164.038 7.657V15H162.855ZM177.915 15.21C177.164 15.21 176.515 15.0397 175.969 14.699C175.428 14.3583 175.01 13.887 174.716 13.285C174.422 12.683 174.275 11.9923 174.275 11.213C174.275 10.4197 174.424 9.72433 174.723 9.127C175.022 8.52967 175.444 8.06533 175.99 7.734C176.536 7.398 177.178 7.23 177.915 7.23C178.671 7.23 179.322 7.40033 179.868 7.741C180.414 8.077 180.832 8.546 181.121 9.148C181.415 9.74533 181.562 10.4337 181.562 11.213C181.562 12.0017 181.415 12.697 181.121 13.299C180.827 13.8963 180.407 14.3653 179.861 14.706C179.315 15.042 178.666 15.21 177.915 15.21ZM177.915 14.027C178.699 14.027 179.282 13.7657 179.665 13.243C180.048 12.7203 180.239 12.0437 180.239 11.213C180.239 10.359 180.045 9.68 179.658 9.176C179.271 8.66733 178.69 8.413 177.915 8.413C177.388 8.413 176.954 8.532 176.613 8.77C176.272 9.008 176.018 9.337 175.85 9.757C175.682 10.177 175.598 10.6623 175.598 11.213C175.598 12.0623 175.794 12.7437 176.186 13.257C176.578 13.7703 177.154 14.027 177.915 14.027ZM186.575 15.21C185.866 15.21 185.268 15.035 184.783 14.685C184.298 14.3303 183.929 13.852 183.677 13.25C183.43 12.6433 183.306 11.9643 183.306 11.213C183.306 10.4523 183.43 9.771 183.677 9.169C183.929 8.567 184.298 8.09333 184.783 7.748C185.273 7.40267 185.873 7.23 186.582 7.23C187.282 7.23 187.884 7.405 188.388 7.755C188.897 8.10033 189.286 8.574 189.557 9.176C189.828 9.778 189.963 10.457 189.963 11.213C189.963 11.969 189.828 12.648 189.557 13.25C189.286 13.852 188.897 14.3303 188.388 14.685C187.884 15.035 187.28 15.21 186.575 15.21ZM183.096 15V4.92H184.349V9.435H184.209V15H183.096ZM186.421 14.069C186.92 14.069 187.333 13.943 187.66 13.691C187.987 13.439 188.232 13.0983 188.395 12.669C188.558 12.235 188.64 11.7497 188.64 11.213C188.64 10.681 188.558 10.2003 188.395 9.771C188.236 9.34167 187.989 9.001 187.653 8.749C187.322 8.497 186.899 8.371 186.386 8.371C185.896 8.371 185.49 8.49233 185.168 8.735C184.846 8.973 184.606 9.30667 184.447 9.736C184.288 10.1607 184.209 10.653 184.209 11.213C184.209 11.7637 184.286 12.256 184.44 12.69C184.599 13.1193 184.841 13.4577 185.168 13.705C185.495 13.9477 185.912 14.069 186.421 14.069ZM191.638 6.103V4.815H192.884V6.103H191.638ZM191.638 15V7.44H192.884V15H191.638ZM195.124 15V4.71H196.37V15H195.124ZM201.746 15.21C201.004 15.21 200.356 15.0467 199.8 14.72C199.25 14.3887 198.82 13.929 198.512 13.341C198.204 12.7483 198.05 12.0577 198.05 11.269C198.05 10.443 198.202 9.729 198.505 9.127C198.809 8.52033 199.231 8.05367 199.772 7.727C200.318 7.39567 200.958 7.23 201.69 7.23C202.451 7.23 203.097 7.405 203.629 7.755C204.166 8.105 204.567 8.60433 204.833 9.253C205.104 9.90167 205.221 10.674 205.183 11.57H203.923V11.122C203.909 10.1933 203.72 9.50033 203.356 9.043C202.992 8.581 202.451 8.35 201.732 8.35C200.962 8.35 200.377 8.59733 199.975 9.092C199.574 9.58667 199.373 10.296 199.373 11.22C199.373 12.1113 199.574 12.802 199.975 13.292C200.377 13.782 200.948 14.027 201.69 14.027C202.19 14.027 202.624 13.9127 202.992 13.684C203.361 13.4553 203.65 13.1263 203.86 12.697L205.057 13.11C204.763 13.7773 204.32 14.2953 203.727 14.664C203.139 15.028 202.479 15.21 201.746 15.21ZM198.953 11.57V10.569H204.539V11.57H198.953ZM212.729 15.21C211.964 15.21 211.313 15.0397 210.776 14.699C210.244 14.3537 209.838 13.88 209.558 13.278C209.278 12.676 209.134 11.99 209.124 11.22C209.134 10.4313 209.281 9.73833 209.565 9.141C209.855 8.539 210.268 8.07 210.804 7.734C211.341 7.398 211.987 7.23 212.743 7.23C213.541 7.23 214.227 7.426 214.801 7.818C215.38 8.21 215.767 8.74667 215.963 9.428L214.731 9.799C214.573 9.36033 214.314 9.01967 213.954 8.777C213.6 8.53433 213.191 8.413 212.729 8.413C212.211 8.413 211.784 8.53433 211.448 8.777C211.112 9.015 210.863 9.34633 210.699 9.771C210.536 10.191 210.452 10.674 210.447 11.22C210.457 12.06 210.65 12.739 211.028 13.257C211.411 13.7703 211.978 14.027 212.729 14.027C213.224 14.027 213.635 13.915 213.961 13.691C214.288 13.4623 214.535 13.1333 214.703 12.704L215.963 13.033C215.702 13.7377 215.294 14.2767 214.738 14.65C214.183 15.0233 213.513 15.21 212.729 15.21ZM219.473 15.21C218.908 15.21 218.434 15.1073 218.052 14.902C217.674 14.692 217.387 14.4167 217.191 14.076C216.999 13.7353 216.904 13.362 216.904 12.956C216.904 12.5593 216.978 12.2163 217.128 11.927C217.282 11.633 217.496 11.3903 217.772 11.199C218.047 11.003 218.376 10.849 218.759 10.737C219.118 10.639 219.519 10.555 219.963 10.485C220.411 10.4103 220.863 10.3427 221.321 10.282C221.778 10.2213 222.205 10.163 222.602 10.107L222.154 10.366C222.168 9.694 222.032 9.197 221.748 8.875C221.468 8.553 220.982 8.392 220.292 8.392C219.834 8.392 219.433 8.497 219.088 8.707C218.747 8.91233 218.507 9.24833 218.367 9.715L217.184 9.358C217.366 8.69533 217.718 8.175 218.241 7.797C218.763 7.419 219.452 7.23 220.306 7.23C220.992 7.23 221.58 7.35367 222.07 7.601C222.564 7.84367 222.919 8.21233 223.134 8.707C223.241 8.94033 223.309 9.19467 223.337 9.47C223.365 9.74067 223.379 10.0253 223.379 10.324V15H222.273V13.187L222.532 13.355C222.247 13.9663 221.848 14.4283 221.335 14.741C220.826 15.0537 220.205 15.21 219.473 15.21ZM219.662 14.167C220.11 14.167 220.497 14.0877 220.824 13.929C221.155 13.7657 221.421 13.5533 221.622 13.292C221.822 13.026 221.953 12.7367 222.014 12.424C222.084 12.1907 222.121 11.9317 222.126 11.647C222.135 11.3577 222.14 11.136 222.14 10.982L222.574 11.171C222.168 11.227 221.769 11.2807 221.377 11.332C220.985 11.3833 220.614 11.4393 220.264 11.5C219.914 11.556 219.599 11.6237 219.319 11.703C219.113 11.7683 218.92 11.8523 218.738 11.955C218.56 12.0577 218.416 12.1907 218.304 12.354C218.196 12.5127 218.143 12.711 218.143 12.949C218.143 13.1543 218.194 13.3503 218.297 13.537C218.404 13.7237 218.567 13.8753 218.787 13.992C219.011 14.1087 219.302 14.167 219.662 14.167ZM225.199 15V7.44H226.312V9.267L226.13 9.029C226.218 8.79567 226.333 8.581 226.473 8.385C226.617 8.189 226.778 8.028 226.956 7.902C227.152 7.74333 227.373 7.622 227.621 7.538C227.868 7.454 228.12 7.405 228.377 7.391C228.633 7.37233 228.874 7.38867 229.098 7.44V8.609C228.836 8.539 228.549 8.52033 228.237 8.553C227.924 8.58567 227.635 8.7 227.369 8.896C227.126 9.06867 226.937 9.27867 226.802 9.526C226.671 9.77333 226.58 10.0417 226.529 10.331C226.477 10.6157 226.452 10.9073 226.452 11.206V15H225.199ZM233.253 15.21C232.548 15.21 231.944 15.035 231.44 14.685C230.936 14.3303 230.546 13.852 230.271 13.25C230 12.648 229.865 11.969 229.865 11.213C229.865 10.457 230 9.778 230.271 9.176C230.546 8.574 230.936 8.10033 231.44 7.755C231.944 7.405 232.546 7.23 233.246 7.23C233.96 7.23 234.559 7.40267 235.045 7.748C235.53 8.09333 235.896 8.567 236.144 9.169C236.396 9.771 236.522 10.4523 236.522 11.213C236.522 11.9643 236.396 12.6433 236.144 13.25C235.896 13.852 235.53 14.3303 235.045 14.685C234.559 15.035 233.962 15.21 233.253 15.21ZM233.407 14.069C233.915 14.069 234.333 13.9477 234.66 13.705C234.986 13.4577 235.227 13.1193 235.381 12.69C235.539 12.256 235.619 11.7637 235.619 11.213C235.619 10.653 235.539 10.1607 235.381 9.736C235.227 9.30667 234.989 8.973 234.667 8.735C234.345 8.49233 233.936 8.371 233.442 8.371C232.928 8.371 232.504 8.497 232.168 8.749C231.836 9.001 231.589 9.34167 231.426 9.771C231.267 10.2003 231.188 10.681 231.188 11.213C231.188 11.7497 231.269 12.235 231.433 12.669C231.596 13.0983 231.841 13.439 232.168 13.691C232.499 13.943 232.912 14.069 233.407 14.069ZM235.619 15V9.435H235.479V4.92H236.732V15H235.619Z" fill="#323232"/>
</svg>
