<svg width="32" height="32" viewBox="0 0 32 32" fill="none" xmlns="http://www.w3.org/2000/svg">
<rect width="32" height="32" rx="8" fill="#F0F0F0" style="mix-blend-mode:multiply"/>
<path d="M17.876 23C17.624 23 17.414 22.916 17.246 22.748C17.078 22.568 16.994 22.346 16.994 22.082V12.92L17.318 13.028L13.43 17.996L13.34 17.762H19.892C20.132 17.762 20.33 17.846 20.486 18.014C20.654 18.17 20.738 18.368 20.738 18.608C20.738 18.836 20.654 19.028 20.486 19.184C20.33 19.34 20.132 19.418 19.892 19.418H12.098C11.882 19.418 11.678 19.334 11.486 19.166C11.294 18.986 11.198 18.776 11.198 18.536C11.198 18.308 11.276 18.104 11.432 17.924L17.156 10.76C17.24 10.64 17.348 10.55 17.48 10.49C17.612 10.43 17.75 10.4 17.894 10.4C18.158 10.4 18.374 10.49 18.542 10.67C18.71 10.838 18.794 11.054 18.794 11.318V22.082C18.794 22.346 18.704 22.568 18.524 22.748C18.344 22.916 18.128 23 17.876 23Z" fill="black"/>
</svg>
