<svg width="32" height="32" viewBox="0 0 32 32" fill="none" xmlns="http://www.w3.org/2000/svg">
<rect width="32" height="32" rx="8" fill="#F0F0F0" style="mix-blend-mode:multiply"/>
<path d="M12.872 20.696C12.968 20.696 13.07 20.714 13.178 20.75C13.286 20.774 13.406 20.834 13.538 20.93C13.754 21.122 14.012 21.284 14.312 21.416C14.624 21.536 14.978 21.596 15.374 21.596C15.818 21.596 16.232 21.494 16.616 21.29C17 21.074 17.312 20.774 17.552 20.39C17.792 20.006 17.912 19.55 17.912 19.022C17.912 18.482 17.798 18.044 17.57 17.708C17.342 17.36 17.048 17.102 16.688 16.934C16.328 16.754 15.95 16.664 15.554 16.664C15.326 16.664 15.134 16.688 14.978 16.736C14.822 16.772 14.672 16.814 14.528 16.862C14.384 16.898 14.228 16.916 14.06 16.916C13.832 16.916 13.652 16.838 13.52 16.682C13.388 16.514 13.322 16.316 13.322 16.088C13.322 15.944 13.352 15.818 13.412 15.71C13.472 15.602 13.556 15.482 13.664 15.35L16.994 11.786L17.39 12.146H12.62C12.38 12.146 12.176 12.068 12.008 11.912C11.852 11.744 11.774 11.54 11.774 11.3C11.774 11.072 11.852 10.88 12.008 10.724C12.176 10.568 12.38 10.49 12.62 10.49H18.308C18.62 10.49 18.848 10.58 18.992 10.76C19.148 10.94 19.226 11.15 19.226 11.39C19.226 11.522 19.19 11.648 19.118 11.768C19.058 11.888 18.98 12.002 18.884 12.11L15.536 15.71L15.086 15.224C15.182 15.176 15.344 15.128 15.572 15.08C15.8 15.032 15.986 15.008 16.13 15.008C16.814 15.008 17.426 15.182 17.966 15.53C18.518 15.878 18.944 16.346 19.244 16.934C19.556 17.51 19.712 18.164 19.712 18.896C19.712 19.772 19.514 20.534 19.118 21.182C18.722 21.818 18.17 22.31 17.462 22.658C16.766 23.006 15.962 23.18 15.05 23.18C14.594 23.18 14.138 23.12 13.682 23C13.238 22.868 12.854 22.682 12.53 22.442C12.326 22.322 12.188 22.196 12.116 22.064C12.044 21.92 12.008 21.782 12.008 21.65C12.008 21.422 12.086 21.206 12.242 21.002C12.41 20.798 12.62 20.696 12.872 20.696Z" fill="black"/>
</svg>
